# xmcd CD database file
#
# Track frame offsets:
#	150
#	10917
#	21562
#	33393
#	44711
#	57256
#	69635
#	81230
#	93466
#	104857
#	116137
#	128786
#	139107
#	148957
#	159112
#	170030
#	181108
#	192843
#	204154
#	214826
#	227155
#	237857
#	247018
#	258450
#	270682
#	282509
#	293045
#	305825
#
# Disc length: 4246 seconds
#
# Revision: 0
# Processed by: cddbd v1.5.2PL0 Copyright (c) Steve Scherf et al.
# Submitted via: CDex 1.70beta1
#
DISCID=b610941c
DTITLE=Various Artist - Livin' That Wild Life Disc 2
DYEAR=2008
DGENRE=Blues
TTITLE0=Pork Chops - I wanna See My Lovin Baby
TTITLE1=Pork Chops - Everythings Cool
TTITLE2=Big Bob Kornegay - The Man in the Phone Booth
TTITLE3=Big Bob Kornegay - Stay with me Baby
TTITLE4=Cousin Leroy - Waitin at the Station
TTITLE5=Cousin Leroy - Crossroads
TTITLE6=Sticks McGhee - Sleep in Job
TTITLE7=Sticks McGhee - Money fever
TTITLE8=Sugar Boy Williams - Little Girl
TTITLE9=Sugar Boy Williams -  Five Long Yeras Part 2
TTITLE10=Tender Slim - Im Checking Up
TTITLE11=Tender Slim - Dont Cut out on Me
TTITLE12=Rudy Greene - Juicy Fruit
TTITLE13=Rudy Greene - Youre the one for Me
TTITLE14=Cousin Leroy - Will a Matchbox hold my Clothes
TTITLE15=Cousin Leroy - Highway 41
TTITLE16=Rudy Greene - Lonesome
TTITLE17=Rudy Greene - Wild Life
TTITLE18=Cousin Leroy - Im Lonesome
TTITLE19=Cousin Leroy - Up the River
TTITLE20=Sonny and Jaycee - Mr Froggy
TTITLE21=Sonny and Jaycee - You keep Doggin me
TTITLE22=Cousin Leroy - String Beans
TTITLE23=Cousin Leroy - Woke up with the Blues
TTITLE24=Cousin Leroy - Voo Doo
TTITLE25=Cousin Leroy - Sail On
TTITLE26=Cousin Leroy - Rollin Stone
TTITLE27=Cousin Leroy - String Beans (alt take)
EXTD=YEAR: 2008
EXTT0=
EXTT1=
EXTT2=
EXTT3=
EXTT4=
EXTT5=
EXTT6=
EXTT7=
EXTT8=
EXTT9=
EXTT10=
EXTT11=
EXTT12=
EXTT13=
EXTT14=
EXTT15=
EXTT16=
EXTT17=
EXTT18=
EXTT19=
EXTT20=
EXTT21=
EXTT22=
EXTT23=
EXTT24=
EXTT25=
EXTT26=
EXTT27=
PLAYORDER=
